<?xml version="1.0" standalone="no"?>
<!DOCTYPE svg PUBLIC "-//W3C//DTD SVG 20010904//EN"
 "http://www.w3.org/TR/2001/REC-SVG-20010904/DTD/svg10.dtd">
<svg version="1.0" xmlns="http://www.w3.org/2000/svg"
 width="940.000000pt" height="788.000000pt" viewBox="0 0 940.000000 788.000000"
 preserveAspectRatio="xMidYMid meet">

<g transform="translate(0.000000,788.000000) scale(0.100000,-0.100000)"
fill="#000000" stroke="none">
<path d="M1480 3940 l0 -640 630 0 630 0 0 640 0 640 -630 0 -630 0 0 -640z
m1040 0 c0 -20 -7 -20 -410 -20 -403 0 -410 0 -410 20 0 20 7 20 410 20 403 0
410 0 410 -20z"/>
<path d="M3251 4566 c-137 -45 -162 -194 -43 -255 21 -11 97 -32 168 -46 148
-30 177 -44 172 -82 -10 -82 -191 -99 -340 -31 -27 12 -50 19 -53 17 -2 -3
-11 -22 -20 -42 l-15 -37 40 -20 c97 -49 256 -65 359 -34 30 8 69 30 89 49 35
32 37 36 37 99 0 58 -3 68 -29 95 -37 39 -82 55 -230 86 -124 25 -165 47 -153
80 4 9 24 23 44 32 50 20 178 13 251 -15 l52 -20 15 35 c8 20 15 39 15 44 0 4
-26 17 -57 30 -74 28 -236 36 -302 15z"/>
<path d="M3935 4567 c-59 -23 -94 -47 -129 -89 -113 -132 -74 -336 80 -420
160 -87 365 -32 440 118 27 55 27 193 0 248 -27 54 -80 104 -140 132 -42 19
-67 24 -136 23 -47 0 -98 -6 -115 -12z m213 -96 c67 -34 102 -93 102 -171 0
-79 -35 -137 -104 -172 -57 -29 -168 -23 -220 12 -43 30 -86 109 -86 159 1 69
47 140 115 175 43 23 146 21 193 -3z"/>
<path d="M4637 4566 c-94 -34 -170 -119 -183 -203 -9 -62 0 -153 20 -192 28
-52 93 -109 154 -132 77 -29 222 -24 299 10 74 33 80 43 53 86 -12 20 -25 34
-29 32 -67 -36 -115 -52 -174 -55 -57 -4 -75 0 -120 22 -75 37 -102 81 -102
166 0 85 30 136 101 169 67 32 169 27 242 -11 l52 -27 25 37 25 37 -22 17
c-13 10 -47 27 -76 38 -63 24 -205 27 -265 6z"/>
<path d="M5110 4300 l0 -270 50 0 50 0 0 270 0 270 -50 0 -50 0 0 -270z"/>
<path d="M5355 4558 c-3 -8 -4 -128 -3 -268 l3 -255 248 -3 247 -2 0 45 0 45
-200 0 -200 0 0 70 0 70 150 0 150 0 0 45 0 45 -150 0 -150 0 0 65 0 65 193 2
192 3 0 40 0 40 -238 3 c-186 2 -239 0 -242 -10z"/>
<path d="M5904 4556 c-3 -8 -4 -27 -2 -43 l3 -28 108 -3 107 -3 0 -224 0 -225
50 0 50 0 0 225 0 225 105 0 105 0 0 45 0 45 -260 0 c-216 0 -262 -2 -266 -14z"/>
<path d="M6510 4300 l0 -270 250 0 250 0 0 45 0 45 -200 0 -200 0 0 70 0 70
150 0 150 0 0 45 0 45 -150 0 -150 0 0 65 0 65 190 0 190 0 0 45 0 45 -240 0
-240 0 0 -270z"/>
<path d="M3342 3859 c-98 -19 -186 -92 -219 -182 -20 -56 -16 -156 11 -212 29
-64 100 -127 167 -148 96 -31 230 -17 332 34 l37 19 0 105 0 105 -50 0 -50 0
0 -79 0 -79 -37 -14 c-54 -18 -180 -16 -219 5 -136 72 -136 271 1 337 65 31
180 25 248 -13 l47 -26 25 36 c13 20 22 40 19 45 -11 18 -103 57 -159 67 -66
12 -92 12 -153 0z"/>
<path d="M3792 3583 l3 -268 248 -3 247 -2 0 45 0 45 -200 0 -200 0 0 70 0 70
150 0 150 0 0 45 0 45 -150 0 -150 0 0 65 0 65 193 2 192 3 3 43 3 42 -246 0
-245 0 2 -267z"/>
<path d="M4390 3580 l0 -270 45 0 45 0 2 202 3 202 170 -201 170 -202 48 -1
47 0 0 270 0 270 -45 0 -45 0 -2 -198 -3 -198 -168 198 -168 198 -49 0 -50 0
0 -270z"/>
<path d="M5060 3580 l0 -270 250 0 250 0 0 45 0 45 -200 0 -200 0 0 70 0 69
148 3 147 3 3 43 3 42 -150 0 -151 0 0 65 0 65 190 0 190 0 0 45 0 45 -240 0
-240 0 0 -270z"/>
<path d="M5660 3580 l0 -270 50 0 50 0 0 100 0 100 79 0 79 0 73 -100 74 -99
63 -1 64 0 -53 68 c-29 37 -63 80 -76 95 -28 34 -29 47 -5 47 30 0 93 50 108
86 28 68 12 157 -37 200 -42 38 -84 44 -280 44 l-189 0 0 -270z m399 163 c11
-10 24 -32 27 -50 5 -27 1 -37 -24 -63 l-30 -30 -136 0 -136 0 0 80 0 80 139
0 c117 0 142 -3 160 -17z"/>
<path d="M6431 3748 c-27 -57 -83 -175 -125 -262 -42 -87 -76 -163 -76 -167 0
-5 22 -9 49 -9 l49 0 31 65 30 65 144 0 145 0 27 -65 28 -65 54 0 54 0 -14 28
c-7 15 -65 136 -128 269 l-114 242 -53 1 -53 0 -48 -102z m195 -215 c-2 -2
-46 -2 -98 -1 l-95 3 49 105 50 105 49 -104 c27 -57 48 -106 45 -108z"/>
<path d="M6910 3580 l0 -270 225 0 225 0 0 45 0 45 -175 0 -175 0 0 225 0 225
-50 0 -50 0 0 -270z"/>
<path d="M7430 3580 l0 -270 245 0 245 0 0 45 0 45 -195 0 -195 0 0 70 0 70
145 0 145 0 0 45 0 45 -145 0 -145 0 0 65 0 65 190 0 190 0 0 45 0 45 -240 0
-240 0 0 -270z"/>
</g>
</svg>
